# xmcd CD database file
#
# Track frame offsets:
#	150
#	16880
#	28887
#	43195
#	55347
#	60260
#	78352
#	93752
#	119050
#	135802
#	151537
#	164352
#	177117
#	191925
#	206235
#	219017
#
# Disc length: 3261 seconds
#
# Revision: 3
# Processed by: cddbd v1.5.2PL0 Copyright (c) Steve Scherf et al.
# Submitted via: CDex 1.51
#
DISCID=cd0cbb10
DTITLE=Spirit - Twelve Dreams Of Dr. (Reissue 1996)
DYEAR=1970
DGENRE=Psychedelic Folk
TTITLE0=Prelude - Nothin' To Hide
TTITLE1=Nature's Way
TTITLE2=Animal Zoo
TTITLE3=Love Has Found A Way
TTITLE4=Why Can't I Be Free
TTITLE5=Mr. Skin
TTITLE6=Space Child
TTITLE7=When I Touch You
TTITLE8=Street Worm
TTITLE9=Life Has Just Begun
TTITLE10=Morning Will Come
TTITLE11=Soldier
TTITLE12=Rougher Road (Bonus Track)
TTITLE13=Animal Zoo [Mono Single] (Bonus Track)
TTITLE14=Morning Will Come [Alternate Mono Mix] (Bonus Track)
TTITLE15=Red Light Roll On (Bonus Track)
EXTD=YEAR: 1970
EXTT0=
EXTT1=
EXTT2=
EXTT3=
EXTT4=
EXTT5=
EXTT6=
EXTT7=
EXTT8=
EXTT9=
EXTT10=
EXTT11=
EXTT12=
EXTT13=
EXTT14=
EXTT15=
PLAYORDER=
